<?xml version="1.0" encoding="UTF-8"?>
<!DOCTYPE svg PUBLIC "-//W3C//DTD SVG 1.1//EN" "http://www.w3.org/Graphics/SVG/1.1/DTD/svg11.dtd">
<svg xmlns="http://www.w3.org/2000/svg" style="background: transparent; background-color: transparent; color-scheme: light dark;" xmlns:xlink="http://www.w3.org/1999/xlink" version="1.1" width="156px" height="223px" viewBox="0 0 156 223"><defs/><g><g data-cell-id="0"><g data-cell-id="1"><g data-cell-id="KPlBYZPEpN4-m_W46ik4-6"><g transform="translate(0.5,0.5)"/><g data-cell-id="KPlBYZPEpN4-m_W46ik4-1"><g transform="translate(0.5,0.5)"><path d="M 133.86 85.68 C 145.28 84.23 153.43 73.29 152.06 61.24 C 150.69 49.19 140.32 40.59 128.89 42.04 C 128.77 24.04 116.8 8.55 100.11 4.77 C 83.43 1 66.5 9.96 59.39 26.33 C 54.12 19.97 45.75 17.58 38.16 20.24 C 30.56 22.91 25.23 30.13 24.63 38.55 C 12.29 38.07 1.92 48.23 1.46 61.24 C 1.01 74.26 10.64 85.2 22.98 85.68 Z" fill="#dae8fc" stroke="#b2d1ff" stroke-width="3" stroke-miterlimit="10" pointer-events="all" style="fill: rgb(218, 232, 252); stroke: rgb(178, 209, 255);"/></g></g><g data-cell-id="KPlBYZPEpN4-m_W46ik4-2"><g transform="translate(0.5,0.5)"><rect x="1" y="102.61" width="152.42" height="16.94" rx="2.54" ry="2.54" fill="#dae8fc" stroke="#b2d1ff" stroke-width="3" pointer-events="all" style="fill: rgb(218, 232, 252); stroke: rgb(178, 209, 255);"/></g></g><g data-cell-id="KPlBYZPEpN4-m_W46ik4-3"><g transform="translate(0.5,0.5)"><path d="M 1 157.94 L 85.68 166.01 L 1 174.07 Z" fill="#dae8fc" stroke="#b2d1ff" stroke-width="3" stroke-miterlimit="10" transform="rotate(-60,43.34,166.01)" pointer-events="all" style="fill: rgb(218, 232, 252); stroke: rgb(178, 209, 255);"/></g></g><g data-cell-id="KPlBYZPEpN4-m_W46ik4-4"><g transform="translate(0.5,0.5)"><path d="M 34.87 170.36 L 119.55 178.42 L 34.87 186.48 Z" fill="#dae8fc" stroke="#b2d1ff" stroke-width="3" stroke-miterlimit="10" transform="rotate(-90,77.21,178.42)" pointer-events="all" style="fill: rgb(218, 232, 252); stroke: rgb(178, 209, 255);"/></g></g><g data-cell-id="KPlBYZPEpN4-m_W46ik4-5"><g transform="translate(0.5,0.5)"><path d="M 68.75 157.95 L 153.42 166.01 L 68.75 174.07 Z" fill="#dae8fc" stroke="#b2d1ff" stroke-width="3" stroke-miterlimit="10" transform="rotate(-120,111.08,166.01)" pointer-events="all" style="fill: rgb(218, 232, 252); stroke: rgb(178, 209, 255);"/></g></g></g></g></g></g></svg>